<svg width="30px" height="30px" viewBox="0 0 30 30" version="1.1" xmlns:xlink="http://www.w3.org/1999/xlink" xmlns="http://www.w3.org/2000/svg">
    <defs>
        <path d="M30 0L30 0L30 30L0 30L0 0L30 0Z" id="path_1" />
        <clipPath id="clip_1">
            <use xlink:href="#path_1" clip-rule="evenodd" fill-rule="evenodd" />
        </clipPath>
    </defs>
    <g id="icon-close">
        <path d="M30 0L30 0L30 30L0 30L0 0L30 0Z" id="icon-close" fill="none" stroke="none" />
        <path d="M7 4C6.74413 4 6.48797 4.09747 6.29297 4.29297L4.29297 6.29297C3.90197 6.68397 3.90197 7.31703 4.29297 7.70703L11.5859 15L4.29297 22.293C3.90197 22.684 3.90197 23.317 4.29297 23.707L6.29297 25.707C6.68397 26.098 7.31703 26.098 7.70703 25.707L15 18.4141L22.293 25.707C22.683 26.098 23.317 26.098 23.707 25.707L25.707 23.707C26.098 23.316 26.098 22.683 25.707 22.293L18.4141 15L25.707 7.70703C26.098 7.31703 26.098 6.68297 25.707 6.29297L23.707 4.29297C23.316 3.90197 22.683 3.90197 22.293 4.29297L15 11.5859L7.70703 4.29297C7.51153 4.09747 7.25588 4 7 4L7 4Z" id="Shape" fill="#000000" stroke="none" clip-path="url(#clip_1)" />
        <path d="M7 4C6.74413 4 6.48797 4.09747 6.29297 4.29297L4.29297 6.29297C3.90197 6.68397 3.90197 7.31703 4.29297 7.70703L11.5859 15L4.29297 22.293C3.90197 22.684 3.90197 23.317 4.29297 23.707L6.29297 25.707C6.68397 26.098 7.31703 26.098 7.70703 25.707L15 18.4141L22.293 25.707C22.683 26.098 23.317 26.098 23.707 25.707L25.707 23.707C26.098 23.316 26.098 22.683 25.707 22.293L18.4141 15L25.707 7.70703C26.098 7.31703 26.098 6.68297 25.707 6.29297L23.707 4.29297C23.316 3.90197 22.683 3.90197 22.293 4.29297L15 11.5859L7.70703 4.29297C7.51153 4.09747 7.25588 4 7 4L7 4Z" id="Shape" fill="#000000" stroke="none" clip-path="url(#clip_1)" />
    </g>
</svg>
