<svg width="48px" height="48px" viewBox="0 0 48 48" version="1.1" xmlns:xlink="http://www.w3.org/1999/xlink" xmlns="http://www.w3.org/2000/svg">
    <defs>
        <path d="M48 0L48 0L48 48L0 48L0 0L48 0Z" id="path_1" />
        <clipPath id="clip_1">
            <use xlink:href="#path_1" clip-rule="evenodd" fill-rule="evenodd" />
        </clipPath>
    </defs>
    <g id="message-telegram">
        <path d="M48 0L48 0L48 48L0 48L0 0L48 0Z" id="Telegram-App" fill="none" stroke="none" />
        <path d="M24 4C16.8547 4 10.2521 7.81198 6.67949 14C3.10683 20.188 3.10684 27.812 6.67949 34C10.2522 40.188 16.8547 44 24 44C31.1453 44 37.7479 40.188 41.3205 34C44.8932 27.812 44.8932 20.188 41.3205 14C37.7478 7.81197 31.1453 4 24 4L24 4Z" id="Shape" fill="#29B6F6" stroke="none" clip-path="url(#clip_1)" />
        <path d="M24 4C16.8547 4 10.2521 7.81198 6.67949 14C3.10683 20.188 3.10684 27.812 6.67949 34C10.2522 40.188 16.8547 44 24 44C31.1453 44 37.7479 40.188 41.3205 34C44.8932 27.812 44.8932 20.188 41.3205 14C37.7478 7.81197 31.1453 4 24 4L24 4Z" id="Shape" fill="#29B6F6" stroke="none" clip-path="url(#clip_1)" />
        <path d="M33.95 15L30.204 34.126C30.204 34.126 30.043 35 28.959 35C28.383 35 28.086 34.726 28.086 34.726L19.972 27.993L16.002 25.992L10.907 24.637C10.907 24.637 10 24.375 10 23.625C10 23 10.933 22.702 10.933 22.702L32.249 14.234C32.248 14.233 32.9 13.999 33.375 14C33.667 14 34 14.125 34 14.5C34 14.75 33.95 15 33.95 15L33.95 15Z" id="Shape" fill="#FFFFFF" stroke="none" clip-path="url(#clip_1)" />
        <path d="M33.95 15L30.204 34.126C30.204 34.126 30.043 35 28.959 35C28.383 35 28.086 34.726 28.086 34.726L19.972 27.993L16.002 25.992L10.907 24.637C10.907 24.637 10 24.375 10 23.625C10 23 10.933 22.702 10.933 22.702L32.249 14.234C32.248 14.233 32.9 13.999 33.375 14C33.667 14 34 14.125 34 14.5C34 14.75 33.95 15 33.95 15L33.95 15Z" id="Shape" fill="#FFFFFF" stroke="none" clip-path="url(#clip_1)" />
        <path d="M23 30.505L19.574 33.879C19.574 33.879 19.425 33.994 19.226 33.999C19.157 34.001 19.083 33.99 19.007 33.956L19.971 27.991L23 30.505L23 30.505Z" id="Shape" fill="#B0BEC5" stroke="none" clip-path="url(#clip_1)" />
        <path d="M23 30.505L19.574 33.879C19.574 33.879 19.425 33.994 19.226 33.999C19.157 34.001 19.083 33.99 19.007 33.956L19.971 27.991L23 30.505L23 30.505Z" id="Shape" fill="#B0BEC5" stroke="none" clip-path="url(#clip_1)" />
        <path d="M29.897 18.196C29.728 17.976 29.416 17.936 29.196 18.103L16 26C16 26 18.106 31.892 18.427 32.912C18.749 33.933 19.007 33.957 19.007 33.957L19.971 27.992L29.803 18.896C30.023 18.729 30.064 18.416 29.897 18.196L29.897 18.196Z" id="Shape" fill="#CFD8DC" stroke="none" clip-path="url(#clip_1)" />
        <path d="M29.897 18.196C29.728 17.976 29.416 17.936 29.196 18.103L16 26C16 26 18.106 31.892 18.427 32.912C18.749 33.933 19.007 33.957 19.007 33.957L19.971 27.992L29.803 18.896C30.023 18.729 30.064 18.416 29.897 18.196L29.897 18.196Z" id="Shape" fill="#CFD8DC" stroke="none" clip-path="url(#clip_1)" />
    </g>
</svg>
